<svg width="1160.1" height="145.801" viewBox="0 0 1160.1 145.801" xmlns="http://www.w3.org/2000/svg">
	<g id="svgGroup" stroke-linecap="round" fill-rule="evenodd" font-size="9pt" stroke="#000" stroke-width="0.25mm" fill="none" style="stroke:#000;stroke-width:0.25mm;fill:none">
		<path d="M 36.45 57.6 L 60.15 87.45 A 138.549 138.549 0 0 0 62.308 90.059 Q 64.136 92.213 65.625 93.75 A 33.136 33.136 0 0 0 67.477 95.527 Q 68.803 96.698 70.05 97.5 Q 72.15 98.85 74.175 99.375 A 15.886 15.886 0 0 0 76.475 99.785 A 21.441 21.441 0 0 0 78.75 99.9 L 73.5 112.05 A 27.029 27.029 0 0 1 68.084 111.533 A 19.821 19.821 0 0 1 62.175 109.35 A 24.264 24.264 0 0 1 58.634 106.841 Q 56.981 105.452 55.268 103.622 A 58.777 58.777 0 0 1 52.2 100.05 L 22.8 62.55 L 14.25 111 L 0 111 L 18.45 6 L 32.7 6 L 24.45 52.65 L 74.25 6.3 L 82.95 15.9 L 36.45 57.6 Z" id="0" vector-effect="non-scaling-stroke"/>
		<path d="M 91.05 111 L 100.95 54.9 A 11.959 11.959 0 0 0 101.074 54.147 Q 101.135 53.693 101.175 53.175 A 26.044 26.044 0 0 0 101.249 51.428 A 28.988 28.988 0 0 0 101.25 51.15 A 11.487 11.487 0 0 0 101.061 48.99 Q 100.835 47.807 100.334 46.906 A 5.067 5.067 0 0 0 98.85 45.225 A 8.641 8.641 0 0 0 95.976 43.905 Q 94.439 43.5 92.55 43.5 L 97.2 33 A 27.943 27.943 0 0 1 101.878 33.366 Q 106.611 34.171 109.5 36.75 A 11.772 11.772 0 0 1 112.867 42.11 Q 113.7 44.743 113.7 48.15 L 113.7 51.15 A 47.571 47.571 0 0 1 116.902 44.596 Q 120.343 38.813 124.875 35.775 Q 131.7 31.2 140.4 31.2 A 38.013 38.013 0 0 1 143.042 31.287 Q 144.289 31.374 145.373 31.548 A 19.615 19.615 0 0 1 146.325 31.725 Q 148.8 32.25 150.45 33 L 144.45 46.2 Q 142.65 45.45 140.7 45.15 A 24.007 24.007 0 0 0 138.879 44.945 Q 137.634 44.85 136.2 44.85 Q 132.15 44.85 128.1 46.875 Q 124.588 48.631 121.414 52.474 A 33.33 33.33 0 0 0 120.45 53.7 A 38.883 38.883 0 0 0 117.624 58.095 Q 115.631 61.669 113.85 66.3 Q 111.553 72.272 109.872 80.442 A 148.499 148.499 0 0 0 108.9 85.65 L 104.55 111 L 91.05 111 Z" id="1" vector-effect="non-scaling-stroke"/>
		<path d="M 176.7 33 L 163.05 111 L 149.55 111 L 163.2 33 L 176.7 33 Z M 166.725 17.175 A 6.675 6.675 0 0 0 167.621 18.023 Q 169.695 19.65 173.1 19.65 Q 177.6 19.65 180.6 16.725 A 9.537 9.537 0 0 0 183.142 12.464 A 12.473 12.473 0 0 0 183.6 9 Q 183.6 5.7 181.425 3.225 A 6.675 6.675 0 0 0 180.529 2.377 Q 178.455 0.75 175.05 0.75 Q 170.55 0.75 167.55 3.675 A 9.537 9.537 0 0 0 165.008 7.936 A 12.473 12.473 0 0 0 164.55 11.4 Q 164.55 14.7 166.725 17.175 Z" id="2" vector-effect="non-scaling-stroke"/>
		<path d="M 188.55 47.55 L 190.5 35.85 L 204.3 35.85 L 211.5 11.25 L 221.85 11.25 L 217.5 35.85 L 239.1 35.85 L 237.15 47.55 L 215.4 47.55 L 209.1 84 Q 208.5 87 208.5 89.7 A 14.421 14.421 0 0 0 208.863 93.035 A 9.56 9.56 0 0 0 211.575 97.875 A 10.294 10.294 0 0 0 216.477 100.438 A 15.305 15.305 0 0 0 219.9 100.8 Q 223.315 100.8 225.852 100.014 A 12.752 12.752 0 0 0 227.175 99.525 A 83.689 83.689 0 0 0 231.186 97.653 A 71.915 71.915 0 0 0 232.65 96.9 L 234.3 108.6 Q 231.907 109.985 228.51 111.106 A 48.485 48.485 0 0 1 227.175 111.525 Q 222.9 112.8 217.65 112.8 Q 213.45 112.8 209.4 111.525 Q 205.35 110.25 202.2 107.625 A 18.285 18.285 0 0 1 198.292 103.038 A 22.596 22.596 0 0 1 197.1 100.8 A 20.073 20.073 0 0 1 195.593 95.951 Q 195.192 93.764 195.154 91.269 A 34.444 34.444 0 0 1 195.15 90.75 Q 195.15 89.1 195.3 87.375 Q 195.429 85.893 195.669 84.022 A 123.526 123.526 0 0 1 195.75 83.4 L 201.9 47.55 L 188.55 47.55 Z" id="3" vector-effect="non-scaling-stroke"/>
		<path d="M 247.2 47.55 L 249.15 35.85 L 262.95 35.85 L 270.15 11.25 L 280.5 11.25 L 276.15 35.85 L 297.75 35.85 L 295.8 47.55 L 274.05 47.55 L 267.75 84 Q 267.15 87 267.15 89.7 A 14.421 14.421 0 0 0 267.513 93.035 A 9.56 9.56 0 0 0 270.225 97.875 A 10.294 10.294 0 0 0 275.127 100.438 A 15.305 15.305 0 0 0 278.55 100.8 Q 281.965 100.8 284.502 100.014 A 12.752 12.752 0 0 0 285.825 99.525 A 83.689 83.689 0 0 0 289.836 97.653 A 71.915 71.915 0 0 0 291.3 96.9 L 292.95 108.6 Q 290.557 109.985 287.16 111.106 A 48.485 48.485 0 0 1 285.825 111.525 Q 281.55 112.8 276.3 112.8 Q 272.1 112.8 268.05 111.525 Q 264 110.25 260.85 107.625 A 18.285 18.285 0 0 1 256.942 103.038 A 22.596 22.596 0 0 1 255.75 100.8 A 20.073 20.073 0 0 1 254.243 95.951 Q 253.842 93.764 253.804 91.269 A 34.444 34.444 0 0 1 253.8 90.75 Q 253.8 89.1 253.95 87.375 Q 254.079 85.893 254.319 84.022 A 123.526 123.526 0 0 1 254.4 83.4 L 260.55 47.55 L 247.2 47.55 Z" id="4" vector-effect="non-scaling-stroke"/>
		<path d="M 332.25 33 L 318.6 111 L 305.1 111 L 318.75 33 L 332.25 33 Z M 322.275 17.175 A 6.675 6.675 0 0 0 323.171 18.023 Q 325.245 19.65 328.65 19.65 Q 333.15 19.65 336.15 16.725 A 9.537 9.537 0 0 0 338.692 12.464 A 12.473 12.473 0 0 0 339.15 9 Q 339.15 5.7 336.975 3.225 A 6.675 6.675 0 0 0 336.079 2.377 Q 334.005 0.75 330.6 0.75 Q 326.1 0.75 323.1 3.675 A 9.537 9.537 0 0 0 320.558 7.936 A 12.473 12.473 0 0 0 320.1 11.4 Q 320.1 14.7 322.275 17.175 Z" id="5" vector-effect="non-scaling-stroke"/>
		<path d="M 362.25 79.95 L 356.85 111 L 343.35 111 L 357 33 L 370.05 33 L 366.75 51 A 39.953 39.953 0 0 1 375.062 39.922 A 37.295 37.295 0 0 1 379.2 36.6 A 30.287 30.287 0 0 1 388.833 32.091 A 27.729 27.729 0 0 1 395.85 31.2 A 27.351 27.351 0 0 1 401.518 31.766 A 22.831 22.831 0 0 1 405.15 32.85 A 21.504 21.504 0 0 1 410.218 35.643 A 19.149 19.149 0 0 1 412.275 37.425 Q 415.2 40.35 416.775 44.25 A 21.98 21.98 0 0 1 418.336 51.812 A 25.247 25.247 0 0 1 418.35 52.65 A 42.556 42.556 0 0 1 418.223 55.807 Q 418.013 58.631 417.45 62.1 L 408.9 111 L 395.4 111 L 403.65 64.35 Q 404.215 61.636 404.44 60.03 A 19.685 19.685 0 0 0 404.55 59.1 Q 404.7 57.45 404.7 55.8 A 16.393 16.393 0 0 0 404.245 51.827 A 11.407 11.407 0 0 0 401.325 46.5 A 11.282 11.282 0 0 0 394.724 43.215 A 15.791 15.791 0 0 0 392.4 43.05 Q 388.5 43.05 383.925 45.225 A 26.433 26.433 0 0 0 379.011 48.299 A 36.156 36.156 0 0 0 375.075 51.9 A 39.16 39.16 0 0 0 371.006 57.019 Q 369.316 59.529 367.784 62.513 A 64.477 64.477 0 0 0 367.35 63.375 A 51.066 51.066 0 0 0 364.35 71.006 Q 363.234 74.632 362.463 78.76 A 83.674 83.674 0 0 0 362.25 79.95 Z" id="6" vector-effect="non-scaling-stroke"/>
		<path d="M 513.9 57.6 L 537.6 87.45 A 138.549 138.549 0 0 0 539.758 90.059 Q 541.586 92.213 543.075 93.75 A 33.136 33.136 0 0 0 544.927 95.527 Q 546.253 96.698 547.5 97.5 Q 549.6 98.85 551.625 99.375 A 15.886 15.886 0 0 0 553.925 99.785 A 21.441 21.441 0 0 0 556.2 99.9 L 550.95 112.05 A 27.029 27.029 0 0 1 545.534 111.533 A 19.821 19.821 0 0 1 539.625 109.35 A 24.264 24.264 0 0 1 536.084 106.841 Q 534.431 105.452 532.718 103.622 A 58.777 58.777 0 0 1 529.65 100.05 L 500.25 62.55 L 491.7 111 L 477.45 111 L 495.9 6 L 510.15 6 L 501.9 52.65 L 551.7 6.3 L 560.4 15.9 L 513.9 57.6 Z" id="8" vector-effect="non-scaling-stroke"/>
		<path d="M 585.3 79.05 L 579.75 111 L 566.25 111 L 585.75 0 L 599.25 0 L 590.55 49.35 A 37.994 37.994 0 0 1 600.87 37.439 A 36.973 36.973 0 0 1 602.7 36.15 A 29.248 29.248 0 0 1 614.024 31.592 A 28.37 28.37 0 0 1 618.75 31.2 A 27.351 27.351 0 0 1 624.418 31.766 A 22.831 22.831 0 0 1 628.05 32.85 A 21.504 21.504 0 0 1 633.118 35.643 A 19.149 19.149 0 0 1 635.175 37.425 Q 638.1 40.35 639.675 44.25 A 21.98 21.98 0 0 1 641.236 51.812 A 25.247 25.247 0 0 1 641.25 52.65 A 42.556 42.556 0 0 1 641.123 55.807 Q 640.913 58.631 640.35 62.1 L 631.8 111 L 618.3 111 L 626.55 64.35 Q 627.115 61.636 627.34 60.03 A 19.685 19.685 0 0 0 627.45 59.1 Q 627.6 57.45 627.6 55.8 A 15.674 15.674 0 0 0 627.085 51.679 A 11.686 11.686 0 0 0 624.225 46.575 A 11.276 11.276 0 0 0 616.849 43.112 A 15.391 15.391 0 0 0 615.45 43.05 Q 611.4 43.05 606.825 45.15 Q 602.25 47.25 597.975 51.675 A 38.758 38.758 0 0 0 593.687 57.033 A 52.899 52.899 0 0 0 590.325 62.85 A 49.003 49.003 0 0 0 587.421 70.149 Q 586.298 73.738 585.516 77.861 A 83.09 83.09 0 0 0 585.3 79.05 Z" id="9" vector-effect="non-scaling-stroke"/>
		<path d="M 730.8 36.6 L 721.35 89.85 A 11.959 11.959 0 0 0 721.226 90.603 Q 721.165 91.057 721.125 91.575 A 26.044 26.044 0 0 0 721.051 93.322 A 28.988 28.988 0 0 0 721.05 93.6 A 11.487 11.487 0 0 0 721.239 95.76 Q 721.465 96.943 721.966 97.844 A 5.067 5.067 0 0 0 723.45 99.525 A 8.641 8.641 0 0 0 726.324 100.845 Q 727.861 101.25 729.75 101.25 L 725.1 111.75 A 27.015 27.015 0 0 1 720.411 111.369 Q 717.815 110.911 715.76 109.901 A 12.929 12.929 0 0 1 712.725 107.85 A 11.826 11.826 0 0 1 709.621 103.077 Q 708.926 101.176 708.643 98.826 A 28.742 28.742 0 0 1 708.45 95.4 Q 704.25 102.6 697.875 107.7 Q 691.5 112.8 682.95 112.8 Q 677.4 112.8 672.3 110.55 Q 667.2 108.3 663.225 104.1 A 29.177 29.177 0 0 1 658.363 97.094 A 35.605 35.605 0 0 1 656.925 93.825 A 35.032 35.032 0 0 1 654.875 85.238 A 44.024 44.024 0 0 1 654.6 80.25 A 55.4 55.4 0 0 1 656.145 66.969 A 48.295 48.295 0 0 1 658.275 60.375 Q 661.95 51.3 668.55 44.85 A 46.375 46.375 0 0 1 683.166 35.261 A 53.257 53.257 0 0 1 684.3 34.8 A 52.41 52.41 0 0 1 699.931 31.349 A 61.955 61.955 0 0 1 704.25 31.2 A 73.966 73.966 0 0 1 711.577 31.545 Q 715.326 31.918 718.585 32.697 A 42.803 42.803 0 0 1 719.775 33 A 130.992 130.992 0 0 1 724.409 34.336 Q 726.579 35.008 728.425 35.68 A 59.107 59.107 0 0 1 730.8 36.6 Z M 711.9 67.8 L 715.95 44.55 Q 713.1 43.65 710.025 43.125 Q 707.635 42.717 704.474 42.626 A 65.261 65.261 0 0 0 702.6 42.6 Q 694.8 42.6 688.5 45.3 Q 682.2 48 677.7 52.8 A 32.605 32.605 0 0 0 671.148 63.281 A 37.561 37.561 0 0 0 670.8 64.2 Q 668.4 70.8 668.4 78.6 A 31.484 31.484 0 0 0 668.746 83.382 A 23.107 23.107 0 0 0 669.975 88.125 A 24.639 24.639 0 0 0 671.989 92.255 A 19.842 19.842 0 0 0 674.1 95.1 A 17.559 17.559 0 0 0 677.925 98.345 A 15.821 15.821 0 0 0 679.875 99.375 Q 683.1 100.8 686.55 100.8 A 16.835 16.835 0 0 0 694.884 98.566 A 19.934 19.934 0 0 0 695.175 98.4 A 23.212 23.212 0 0 0 700.234 94.378 A 29.419 29.419 0 0 0 702.6 91.575 A 40.602 40.602 0 0 0 706.028 86.075 A 52.47 52.47 0 0 0 708.3 81.075 A 61.924 61.924 0 0 0 711.033 72.19 A 73.494 73.494 0 0 0 711.9 67.8 Z" id="10" vector-effect="non-scaling-stroke"/>
		<path d="M 762.3 79.95 L 756.9 111 L 743.4 111 L 757.05 33 L 770.1 33 L 766.8 51 A 39.953 39.953 0 0 1 775.112 39.922 A 37.295 37.295 0 0 1 779.25 36.6 A 30.287 30.287 0 0 1 788.883 32.091 A 27.729 27.729 0 0 1 795.9 31.2 A 27.351 27.351 0 0 1 801.568 31.766 A 22.831 22.831 0 0 1 805.2 32.85 A 21.504 21.504 0 0 1 810.268 35.643 A 19.149 19.149 0 0 1 812.325 37.425 Q 815.25 40.35 816.825 44.25 A 21.98 21.98 0 0 1 818.386 51.812 A 25.247 25.247 0 0 1 818.4 52.65 A 42.556 42.556 0 0 1 818.273 55.807 Q 818.063 58.631 817.5 62.1 L 808.95 111 L 795.45 111 L 803.7 64.35 Q 804.265 61.636 804.49 60.03 A 19.685 19.685 0 0 0 804.6 59.1 Q 804.75 57.45 804.75 55.8 A 16.393 16.393 0 0 0 804.295 51.827 A 11.407 11.407 0 0 0 801.375 46.5 A 11.282 11.282 0 0 0 794.774 43.215 A 15.791 15.791 0 0 0 792.45 43.05 Q 788.55 43.05 783.975 45.225 A 26.433 26.433 0 0 0 779.061 48.299 A 36.156 36.156 0 0 0 775.125 51.9 A 39.16 39.16 0 0 0 771.056 57.019 Q 769.366 59.529 767.834 62.513 A 64.477 64.477 0 0 0 767.4 63.375 A 51.066 51.066 0 0 0 764.4 71.006 Q 763.284 74.632 762.513 78.76 A 83.674 83.674 0 0 0 762.3 79.95 Z" id="11" vector-effect="non-scaling-stroke"/>
		<path d="M 833.85 82.65 L 842.4 33 L 855.9 33 L 847.2 82.35 Q 846.97 83.498 846.873 84.427 A 14.354 14.354 0 0 0 846.825 84.975 A 32.654 32.654 0 0 0 846.769 86.156 A 42.77 42.77 0 0 0 846.75 87.45 A 18.504 18.504 0 0 0 847.128 91.321 Q 847.632 93.671 848.804 95.43 A 9.867 9.867 0 0 0 850.65 97.5 Q 854.55 100.8 859.8 100.8 A 18.725 18.725 0 0 0 866.009 99.708 A 23.088 23.088 0 0 0 868.275 98.775 A 26.043 26.043 0 0 0 874.66 94.452 A 30.757 30.757 0 0 0 876.15 93 A 34.364 34.364 0 0 0 880.134 87.939 A 44.377 44.377 0 0 0 882.525 83.775 A 40.186 40.186 0 0 0 885.365 76.366 A 50.934 50.934 0 0 0 886.5 71.25 L 893.25 33 L 906.75 33 L 896.85 89.85 A 11.959 11.959 0 0 0 896.726 90.603 Q 896.665 91.057 896.625 91.575 A 26.044 26.044 0 0 0 896.551 93.322 A 28.988 28.988 0 0 0 896.55 93.6 A 11.487 11.487 0 0 0 896.739 95.76 Q 896.965 96.943 897.466 97.844 A 5.067 5.067 0 0 0 898.95 99.525 A 8.641 8.641 0 0 0 901.824 100.845 Q 903.361 101.25 905.25 101.25 L 900.6 111.75 A 27.015 27.015 0 0 1 895.911 111.369 Q 893.315 110.911 891.26 109.901 A 12.929 12.929 0 0 1 888.225 107.85 A 11.826 11.826 0 0 1 885.121 103.077 Q 884.426 101.176 884.143 98.826 A 28.742 28.742 0 0 1 883.95 95.4 L 883.95 94.05 A 47.991 47.991 0 0 1 876.904 103.479 A 29.226 29.226 0 0 1 855.3 112.8 A 23.984 23.984 0 0 1 847.606 111.579 A 22.707 22.707 0 0 1 846.825 111.3 Q 842.85 109.8 839.775 106.95 Q 836.7 104.1 834.975 100.05 A 21.436 21.436 0 0 1 833.454 94.282 A 27.234 27.234 0 0 1 833.25 90.9 Q 833.25 88.95 833.4 86.925 A 69.763 69.763 0 0 1 833.677 84.034 A 82.367 82.367 0 0 1 833.85 82.65 Z" id="12" vector-effect="non-scaling-stroke"/>
		<path d="M 976.95 94.95 L 978.15 106.95 A 51.838 51.838 0 0 1 974.448 108.493 Q 971.091 109.753 966.825 110.925 A 51.071 51.071 0 0 1 958.844 112.415 A 68.056 68.056 0 0 1 951.45 112.8 A 39.401 39.401 0 0 1 943.229 111.973 A 32.822 32.822 0 0 1 937.8 110.325 Q 931.65 107.85 927.225 103.275 A 30.877 30.877 0 0 1 921.501 94.891 A 37.105 37.105 0 0 1 920.325 92.1 A 38.477 38.477 0 0 1 918.198 83.205 A 49.323 49.323 0 0 1 917.85 77.25 Q 917.85 67.95 920.85 59.55 A 46.335 46.335 0 0 1 927.281 47.391 A 42.979 42.979 0 0 1 929.325 44.85 Q 934.8 38.55 942.6 34.875 A 38.788 38.788 0 0 1 955.742 31.389 A 47.185 47.185 0 0 1 960 31.2 Q 966.45 31.2 971.55 33.15 A 30.565 30.565 0 0 1 976.657 35.642 A 24.6 24.6 0 0 1 980.175 38.25 Q 983.7 41.4 985.575 45.6 Q 987.45 49.8 987.45 54.3 Q 987.45 61.692 984.372 66.645 A 17.22 17.22 0 0 1 983.475 67.95 Q 979.5 73.2 973.5 76.275 A 42.683 42.683 0 0 1 962.301 80.12 A 49.051 49.051 0 0 1 960.3 80.475 A 94.896 94.896 0 0 1 951.593 81.442 A 79.034 79.034 0 0 1 946.65 81.6 Q 942.6 81.6 938.625 81.225 A 162.882 162.882 0 0 1 935.333 80.883 Q 933.836 80.71 932.513 80.525 A 89.808 89.808 0 0 1 931.65 80.4 Q 932.85 90.3 938.625 95.55 A 19.794 19.794 0 0 0 948.489 100.337 A 28.065 28.065 0 0 0 953.7 100.8 A 49.306 49.306 0 0 0 960.579 100.342 A 36.583 36.583 0 0 0 967.05 98.85 Q 972.9 96.9 976.95 94.95 Z M 958.95 42.6 Q 953.7 42.6 949.125 44.625 Q 944.55 46.65 941.025 50.25 Q 937.5 53.85 935.175 58.8 A 38.569 38.569 0 0 0 932.266 67.794 A 44.176 44.176 0 0 0 931.95 69.6 Q 935.4 70.35 938.85 70.65 A 76.013 76.013 0 0 0 942.403 70.87 Q 944.157 70.94 946.093 70.949 A 123.669 123.669 0 0 0 946.65 70.95 A 75.082 75.082 0 0 0 954.084 70.606 Q 961.673 69.848 966.675 67.425 A 13.171 13.171 0 0 0 971.161 64.011 Q 973.275 61.459 973.786 57.801 A 17.687 17.687 0 0 0 973.95 55.35 A 11.634 11.634 0 0 0 970.264 46.765 A 15.534 15.534 0 0 0 969.825 46.35 A 14.066 14.066 0 0 0 963.097 43.004 A 20.26 20.26 0 0 0 958.95 42.6 Z" id="13" vector-effect="non-scaling-stroke"/>
		<path d="M 1014.45 79.95 L 1009.05 111 L 995.55 111 L 1009.2 33 L 1022.25 33 L 1018.95 51 A 39.953 39.953 0 0 1 1027.262 39.922 A 37.295 37.295 0 0 1 1031.4 36.6 A 30.287 30.287 0 0 1 1041.033 32.091 A 27.729 27.729 0 0 1 1048.05 31.2 A 27.351 27.351 0 0 1 1053.718 31.766 A 22.831 22.831 0 0 1 1057.35 32.85 A 21.504 21.504 0 0 1 1062.418 35.643 A 19.149 19.149 0 0 1 1064.475 37.425 Q 1067.4 40.35 1068.975 44.25 A 21.98 21.98 0 0 1 1070.536 51.812 A 25.247 25.247 0 0 1 1070.55 52.65 A 42.556 42.556 0 0 1 1070.423 55.807 Q 1070.213 58.631 1069.65 62.1 L 1061.1 111 L 1047.6 111 L 1055.85 64.35 Q 1056.415 61.636 1056.64 60.03 A 19.685 19.685 0 0 0 1056.75 59.1 Q 1056.9 57.45 1056.9 55.8 A 16.393 16.393 0 0 0 1056.445 51.827 A 11.407 11.407 0 0 0 1053.525 46.5 A 11.282 11.282 0 0 0 1046.924 43.215 A 15.791 15.791 0 0 0 1044.6 43.05 Q 1040.7 43.05 1036.125 45.225 A 26.433 26.433 0 0 0 1031.211 48.299 A 36.156 36.156 0 0 0 1027.275 51.9 A 39.16 39.16 0 0 0 1023.206 57.019 Q 1021.516 59.529 1019.984 62.513 A 64.477 64.477 0 0 0 1019.55 63.375 A 51.066 51.066 0 0 0 1016.55 71.006 Q 1015.434 74.632 1014.663 78.76 A 83.674 83.674 0 0 0 1014.45 79.95 Z" id="14" vector-effect="non-scaling-stroke"/>
		<path d="M 1160.1 36.6 L 1147.05 111.9 A 71.093 71.093 0 0 1 1145.426 119.125 Q 1143.844 124.697 1141.5 128.775 A 42.562 42.562 0 0 1 1137.762 134.289 A 31.094 31.094 0 0 1 1132.95 139.125 A 29.143 29.143 0 0 1 1126.554 143.041 A 25.576 25.576 0 0 1 1122.75 144.375 A 42.085 42.085 0 0 1 1113.415 145.778 A 38.911 38.911 0 0 1 1112.1 145.8 Q 1101.9 145.8 1094.775 141.675 A 43.849 43.849 0 0 1 1087.414 136.379 A 36.409 36.409 0 0 1 1083.15 131.85 L 1093.65 124.05 Q 1101 134.1 1113 134.1 A 18.258 18.258 0 0 0 1125.831 128.902 A 23.821 23.821 0 0 0 1126.2 128.55 A 20.509 20.509 0 0 0 1129.862 123.57 Q 1132.52 118.66 1134.035 111.05 A 76.238 76.238 0 0 0 1134.3 109.65 L 1136.85 94.95 Q 1132.5 101.7 1126.35 106.35 Q 1120.2 111 1112.4 111 Q 1107 111 1101.9 108.975 Q 1096.8 106.95 1092.75 103.05 A 26.816 26.816 0 0 1 1087.691 96.27 A 32.858 32.858 0 0 1 1086.3 93.3 A 31.481 31.481 0 0 1 1084.296 85.771 A 41.185 41.185 0 0 1 1083.9 79.95 Q 1083.9 69.15 1087.65 60.15 A 46.431 46.431 0 0 1 1096.788 45.932 A 44.494 44.494 0 0 1 1098 44.7 A 45.857 45.857 0 0 1 1113.392 34.836 A 52.151 52.151 0 0 1 1113.675 34.725 Q 1122.75 31.2 1133.4 31.2 Q 1141.404 31.2 1147.57 32.624 A 42.581 42.581 0 0 1 1149.075 33 A 130.992 130.992 0 0 1 1153.709 34.336 Q 1155.879 35.008 1157.725 35.68 A 59.107 59.107 0 0 1 1160.1 36.6 Z M 1141.35 66.3 L 1145.25 44.55 Q 1142.4 43.65 1139.25 43.125 A 35.771 35.771 0 0 0 1136.293 42.766 Q 1134.77 42.642 1133.06 42.61 A 63.723 63.723 0 0 0 1131.9 42.6 Q 1124.4 42.6 1118.1 45.375 Q 1111.8 48.15 1107.3 52.95 A 34.734 34.734 0 0 0 1100.576 63.466 A 39.688 39.688 0 0 0 1100.25 64.275 A 37.602 37.602 0 0 0 1097.79 75.621 A 44.103 44.103 0 0 0 1097.7 78.45 A 27.98 27.98 0 0 0 1098.023 82.81 A 20.237 20.237 0 0 0 1099.275 87.375 Q 1100.85 91.2 1103.4 93.825 Q 1105.95 96.45 1109.25 97.725 Q 1112.55 99 1116 99 A 15.601 15.601 0 0 0 1122.927 97.345 A 19.064 19.064 0 0 0 1124.175 96.675 A 23.956 23.956 0 0 0 1128.684 93.227 A 31.17 31.17 0 0 0 1131.525 90.075 A 39.747 39.747 0 0 0 1135.061 84.72 A 52.257 52.257 0 0 0 1137.45 79.8 A 57.294 57.294 0 0 0 1140.055 72.146 A 72.622 72.622 0 0 0 1141.35 66.3 Z" id="15" vector-effect="non-scaling-stroke"/>
	</g>
</svg>